<?xml version="1.0" encoding="utf-8"?>
<!-- Generator: Adobe Illustrator 27.8.1, SVG Export Plug-In . SVG Version: 6.00 Build 0)  -->
<svg version="1.1" id="Layer_1" xmlns="http://www.w3.org/2000/svg" xmlns:xlink="http://www.w3.org/1999/xlink" x="0px" y="0px"
	 viewBox="0 0 3061.4 3061.4" style="enable-background:new 0 0 3061.4 3061.4;" xml:space="preserve">
<path fill="white" d="M2013.8,494.8v449.9c0,0-176.1,71.2-312.1,126.3c-136,55.1-209.3,111.7-209.3,194.5s88.8,134.6,88.8,134.6
	s-130-50.1-247.3-115.2c-117.3-65.2-193.8-167-193.8-253.3c0-86.3,48.9-199.5,272.8-303.8S2013.8,494.8,2013.8,494.8z"/>
<path fill="white" d="M1634.7,1347c0,0,91.3,50.2,91.3,135.7s-69.9,155.4-247.5,229.5S1027,1907.9,1027,1907.9l-85.5,658.7
	c0,0,470.4-225.3,757.4-357.7c287-132.4,421.1-268.1,421.1-425.2S1990.8,1479.4,1634.7,1347z"/>
</svg>
