<?xml version="1.0" encoding="utf-8"?>
<svg version="1.1" id="Layer_1"
     xmlns="http://www.w3.org/2000/svg"
     x="0px" y="0px"
     viewBox="-1100 -1100 5261.4 5261.4"
     preserveAspectRatio="xMidYMid meet"
     style="enable-background:new -1100 -1100 5261.4 5261.4;"
     xml:space="preserve">
  <defs>
    <clipPath id="logo-clip">
      <path d="M2013.8,494.8v449.9c0,0-176.1,71.2-312.1,126.3c-136,55.1-209.3,111.7-209.3,194.5s88.8,134.6,88.8,134.6
	s-130-50.1-247.3-115.2c-117.3-65.2-193.8-167-193.8-253.3c0-86.3,48.9-199.5,272.8-303.8S2013.8,494.8,2013.8,494.8z"/>
      <path d="M1634.7,1347c0,0,91.3,50.2,91.3,135.7s-69.9,155.4-247.5,229.5S1027,1907.9,1027,1907.9l-85.5,658.7
	c0,0,470.4-225.3,757.4-357.7c287-132.4,421.1-268.1,421.1-425.2S1990.8,1479.4,1634.7,1347z"/>
    </clipPath>

    <linearGradient id="shimmer-line" x1="0" y1="0" x2="1" y2="0">
      <stop offset="0" stop-color="#ffffff" stop-opacity="0"/>
      <stop offset="0.38" stop-color="#ffffff" stop-opacity="0.04"/>
      <stop offset="0.49" stop-color="#ffffff" stop-opacity="0.62"/>
      <stop offset="0.53" stop-color="#ffffff" stop-opacity="0.90"/>
      <stop offset="0.58" stop-color="#ffffff" stop-opacity="0.40"/>
      <stop offset="0.72" stop-color="#ffffff" stop-opacity="0.05"/>
      <stop offset="1" stop-color="#ffffff" stop-opacity="0"/>
    </linearGradient>

    <filter id="soft-glow" x="-40%" y="-40%" width="180%" height="180%">
      <feGaussianBlur stdDeviation="13" result="blur"/>
      <feMerge>
        <feMergeNode in="blur"/>
        <feMergeNode in="SourceGraphic"/>
      </feMerge>
    </filter>
  </defs>

  <!-- Original logo shape -->
  <g id="logo-base">
    <path d="M2013.8,494.8v449.9c0,0-176.1,71.2-312.1,126.3c-136,55.1-209.3,111.7-209.3,194.5s88.8,134.6,88.8,134.6
	s-130-50.1-247.3-115.2c-117.3-65.2-193.8-167-193.8-253.3c0-86.3,48.9-199.5,272.8-303.8S2013.8,494.8,2013.8,494.8z"/>
    <path d="M1634.7,1347c0,0,91.3,50.2,91.3,135.7s-69.9,155.4-247.5,229.5S1027,1907.9,1027,1907.9l-85.5,658.7
	c0,0,470.4-225.3,757.4-357.7c287-132.4,421.1-268.1,421.1-425.2S1990.8,1479.4,1634.7,1347z"/>
  </g>

  <!-- Two diagonal transparent sparkling line animations: same direction and same angle -->
  <g id="diagonal-shimmer-2-same-angle" clip-path="url(#logo-clip)" opacity="0.95">
    <g transform="rotate(-28 1530.7 1530.7)" filter="url(#soft-glow)">
      <rect x="-2600" y="-1600" width="280" height="6400" fill="url(#shimmer-line)">
        <animate attributeName="x"
                 values="-2600;3600;3600"
                 keyTimes="0;0.72;1"
                 dur="2.8s"
                 repeatCount="indefinite"/>
        <animate attributeName="opacity"
                 values="0;1;0.78;0"
                 keyTimes="0;0.18;0.72;1"
                 dur="2.8s"
                 repeatCount="indefinite"/>
      </rect>
      <rect x="-2485" y="-1600" width="64" height="6400" fill="#ffffff" opacity="0.30">
        <animate attributeName="x"
                 values="-2485;3715;3715"
                 keyTimes="0;0.72;1"
                 dur="2.8s"
                 repeatCount="indefinite"/>
        <animate attributeName="opacity"
                 values="0;0.58;0.26;0"
                 keyTimes="0;0.22;0.72;1"
                 dur="2.8s"
                 repeatCount="indefinite"/>
      </rect>

      <rect x="-3400" y="-1600" width="240" height="6400" fill="url(#shimmer-line)">
        <animate attributeName="x"
                 values="-3400;2800;2800"
                 keyTimes="0;0.70;1"
                 dur="3.6s"
                 begin="0.9s"
                 repeatCount="indefinite"/>
        <animate attributeName="opacity"
                 values="0;0.82;0.55;0"
                 keyTimes="0;0.20;0.70;1"
                 dur="3.6s"
                 begin="0.9s"
                 repeatCount="indefinite"/>
      </rect>
      <rect x="-3300" y="-1600" width="52" height="6400" fill="#ffffff" opacity="0.22">
        <animate attributeName="x"
                 values="-3300;2900;2900"
                 keyTimes="0;0.70;1"
                 dur="3.6s"
                 begin="0.9s"
                 repeatCount="indefinite"/>
        <animate attributeName="opacity"
                 values="0;0.46;0.18;0"
                 keyTimes="0;0.22;0.70;1"
                 dur="3.6s"
                 begin="0.9s"
                 repeatCount="indefinite"/>
      </rect>
    </g>
  </g>

</svg>
